<svg id="svg" version="1.1" width="800" height="800" xmlns="http://www.w3.org/2000/svg" xmlns:xlink="http://www.w3.org/1999/xlink" ><g id="svgg"><path id="path0" d="M186.500 40.511 C 47.528 53.677,-10.447 224.455,92.250 318.145 C 185.542 403.256,336.730 350.945,357.747 226.282 C 374.972 124.109,288.963 30.805,186.500 40.511 M221.250 45.493 C 283.245 54.805,331.328 96.140,349.654 155.875 L 350.919 160.000 348.787 160.000 L 346.654 160.000 345.533 156.125 C 333.629 114.973,301.574 78.851,261.000 60.866 C 179.490 24.735,83.275 67.727,55.649 152.622 L 53.250 159.994 51.166 159.997 L 49.081 160.000 50.346 155.875 C 69.954 91.911,122.568 50.023,190.500 44.295 C 196.560 43.784,214.535 44.484,221.250 45.493 M218.750 50.761 C 279.147 58.705,326.764 99.647,344.810 159.149 C 345.056 159.961,344.760 160.033,341.731 159.899 L 338.380 159.750 336.042 153.000 C 321.399 110.710,287.116 76.877,245.183 63.333 C 169.702 38.952,89.897 78.440,63.968 153.000 L 61.620 159.750 58.269 159.899 C 55.240 160.033,54.944 159.961,55.190 159.149 C 77.242 86.435,145.595 41.140,218.750 50.761 M218.500 61.207 C 265.187 67.896,304.342 95.869,325.228 137.456 C 328.629 144.227,334.000 157.783,334.000 159.594 C 334.000 159.817,273.700 160.000,200.000 160.000 C 120.572 160.000,66.000 159.816,66.000 159.548 C 66.000 159.300,66.772 156.881,67.715 154.173 C 89.498 91.621,153.851 51.945,218.500 61.207 M184.258 81.168 C 181.897 84.770,179.810 102.608,181.174 107.515 C 183.036 114.211,189.247 120.036,195.875 121.301 L 197.500 121.611 197.500 129.038 L 197.500 136.464 195.625 137.748 C 194.594 138.454,191.838 139.605,189.500 140.306 C 183.701 142.045,183.000 142.361,183.000 143.239 C 183.000 143.905,185.116 144.000,200.000 144.000 C 214.884 144.000,217.000 143.905,217.000 143.239 C 217.000 142.386,216.462 142.139,210.642 140.319 C 208.383 139.612,205.626 138.461,204.517 137.761 L 202.500 136.487 202.501 129.119 L 202.501 121.750 205.433 120.889 C 218.172 117.145,221.936 105.727,217.180 85.250 C 215.871 79.613,217.142 80.000,199.934 80.000 L 185.023 80.000 184.258 81.168 M212.163 85.375 C 212.285 85.581,212.543 86.706,212.736 87.875 L 213.088 90.000 202.833 90.000 L 192.578 90.000 192.063 91.625 C 188.464 102.993,190.288 111.500,197.194 115.562 C 199.645 117.004,199.678 117.051,198.000 116.721 C 186.502 114.455,182.881 104.155,187.521 86.921 L 188.039 85.000 199.990 85.000 C 206.563 85.000,212.041 85.169,212.163 85.375 M352.674 167.875 C 357.064 188.642,357.064 211.358,352.674 232.125 L 351.855 236.000 200.000 236.000 L 48.145 236.000 47.326 232.125 C 42.936 211.358,42.936 188.642,47.326 167.875 L 48.145 164.000 200.000 164.000 L 351.855 164.000 352.674 167.875 M112.375 187.345 C 111.115 187.674,111.205 190.307,112.500 191.000 C 113.452 191.510,113.500 192.047,113.500 202.268 L 113.500 213.000 114.720 213.000 C 115.392 213.000,116.060 212.808,116.205 212.573 C 116.350 212.339,117.523 212.414,118.813 212.742 C 126.806 214.771,132.166 207.261,129.072 198.366 C 128.016 195.330,122.800 193.734,119.575 195.460 C 118.512 196.029,118.500 195.985,118.500 191.518 L 118.500 187.000 115.875 187.058 C 114.431 187.090,112.856 187.219,112.375 187.345 M214.000 187.639 C 212.412 188.433,211.002 191.219,211.001 193.567 C 211.000 194.962,210.768 195.444,210.000 195.645 C 209.385 195.806,209.000 196.327,209.000 197.000 C 209.000 197.673,209.385 198.194,210.000 198.355 C 211.551 198.761,211.525 208.684,209.970 209.516 C 209.244 209.904,208.986 210.464,209.095 211.409 L 209.250 212.750 214.408 212.893 L 219.566 213.036 219.408 211.409 C 219.277 210.056,218.976 209.703,217.625 209.318 L 216.000 208.855 216.000 203.678 L 216.000 198.500 218.750 198.500 C 221.472 198.500,221.500 198.485,221.500 197.000 C 221.500 195.515,221.472 195.500,218.750 195.500 L 216.000 195.500 216.000 193.600 C 216.000 190.534,218.529 189.197,219.500 191.750 C 219.859 192.694,220.337 193.000,221.454 193.000 C 222.935 193.000,222.963 192.963,223.820 189.886 C 224.439 187.662,217.247 186.017,214.000 187.639 M230.327 187.914 C 228.593 189.831,229.833 192.500,232.458 192.500 C 235.196 192.500,236.517 189.269,234.389 187.778 C 232.909 186.742,231.341 186.795,230.327 187.914 M278.875 187.540 C 277.541 188.317,277.762 190.413,279.250 191.091 C 280.214 191.530,280.500 192.036,280.500 193.304 L 280.500 194.948 277.490 194.933 C 271.559 194.905,268.773 198.287,269.129 205.083 C 269.479 211.776,274.327 215.268,279.457 212.523 C 280.324 212.059,280.732 212.070,281.338 212.573 C 282.176 213.269,285.213 213.189,286.624 212.433 C 287.859 211.773,287.772 209.477,286.500 209.145 C 285.538 208.893,285.500 208.463,285.500 197.942 L 285.500 187.000 282.625 187.015 C 281.044 187.024,279.356 187.260,278.875 187.540 M142.403 195.207 C 132.933 197.726,134.765 213.100,144.535 213.100 C 150.461 213.100,153.501 209.861,153.499 203.546 C 153.498 196.666,149.164 193.409,142.403 195.207 M161.125 195.016 C 159.678 195.597,159.601 197.751,161.000 198.500 C 162.540 199.324,162.515 208.689,160.970 209.516 C 158.191 211.004,159.908 212.738,164.316 212.894 C 168.890 213.057,170.618 211.475,168.014 209.510 C 167.052 208.785,166.972 208.303,167.105 204.000 L 167.250 199.285 168.886 198.817 C 172.278 197.847,173.000 198.787,173.000 204.178 C 173.000 208.383,172.891 208.951,171.960 209.568 C 171.144 210.111,170.995 210.557,171.269 211.649 L 171.618 213.039 175.684 212.894 C 180.092 212.738,181.809 211.004,179.030 209.516 C 178.095 209.016,178.000 208.502,178.000 203.958 C 178.000 195.683,174.251 192.557,168.042 195.654 C 166.587 196.380,166.500 196.369,166.500 195.462 C 166.500 194.391,163.333 194.128,161.125 195.016 M192.250 194.846 C 187.416 195.437,185.895 196.844,186.988 199.717 C 187.704 201.601,191.000 201.628,191.000 199.750 C 191.000 198.636,191.207 198.500,192.900 198.500 C 195.218 198.500,196.000 199.205,196.000 201.295 L 196.000 202.891 192.196 203.083 C 184.809 203.456,183.144 212.765,190.413 213.053 C 193.117 213.160,194.777 212.903,195.857 212.210 C 197.270 211.304,197.334 211.313,197.630 212.442 C 197.877 213.388,198.390 213.420,201.875 212.710 C 203.422 212.395,203.524 209.254,202.000 208.855 C 201.086 208.616,201.000 208.172,200.998 203.672 C 200.996 197.599,200.148 195.740,197.149 195.233 C 196.104 195.057,194.912 194.856,194.500 194.788 C 194.088 194.719,193.075 194.745,192.250 194.846 M229.375 194.845 C 227.938 195.220,227.641 197.556,228.922 198.406 C 229.903 199.058,230.000 199.559,230.000 204.000 C 230.000 208.441,229.903 208.942,228.922 209.594 C 226.288 211.343,228.029 213.000,232.500 213.000 C 236.971 213.000,238.712 211.343,236.078 209.594 C 235.057 208.916,235.000 208.497,235.000 201.689 L 235.000 194.500 232.625 194.558 C 231.319 194.590,229.856 194.719,229.375 194.845 M244.125 195.016 C 242.678 195.597,242.601 197.751,244.000 198.500 C 245.540 199.324,245.515 208.689,243.970 209.516 C 241.191 211.004,242.908 212.738,247.316 212.894 C 251.890 213.057,253.618 211.475,251.014 209.510 C 250.052 208.785,249.972 208.303,250.105 204.000 L 250.250 199.285 251.886 198.817 C 255.278 197.847,256.000 198.787,256.000 204.178 C 256.000 208.383,255.891 208.951,254.960 209.568 C 254.144 210.111,253.995 210.557,254.269 211.649 L 254.618 213.039 258.684 212.894 C 263.092 212.738,264.809 211.004,262.030 209.516 C 261.095 209.016,261.000 208.502,261.000 203.958 C 261.000 195.683,257.251 192.557,251.042 195.654 C 249.587 196.380,249.500 196.369,249.500 195.462 C 249.500 194.391,246.333 194.128,244.125 195.016 M123.763 199.335 C 124.438 200.009,124.564 200.931,124.418 204.129 C 124.212 208.672,123.486 209.648,120.500 209.397 L 118.750 209.250 118.607 204.366 C 118.469 199.681,118.510 199.462,119.607 199.022 C 121.380 198.311,122.850 198.421,123.763 199.335 M147.245 199.495 C 148.909 201.334,148.890 207.039,147.214 208.715 C 144.234 211.694,140.688 207.233,141.710 201.790 C 142.310 198.588,145.302 197.348,147.245 199.495 M280.395 203.492 C 280.559 208.834,280.197 209.500,277.129 209.500 C 274.885 209.500,273.752 207.048,274.162 203.077 C 274.526 199.550,275.564 198.406,278.224 198.601 L 280.250 198.750 280.395 203.492 M196.000 207.197 C 196.000 209.037,195.390 209.500,192.969 209.500 C 191.297 209.500,190.421 207.550,191.505 206.244 C 192.851 204.622,196.000 205.290,196.000 207.197 M54.701 244.625 C 72.963 305.872,130.567 349.814,195.250 351.839 C 263.437 353.974,325.952 309.304,345.295 244.625 L 346.678 240.000 348.799 240.000 L 350.919 240.000 349.654 244.125 C 328.467 313.241,265.921 358.204,194.250 355.842 C 128.851 353.687,71.295 309.866,51.291 247.000 C 50.285 243.838,49.364 240.969,49.246 240.625 C 49.096 240.189,49.679 240.000,51.177 240.000 L 53.322 240.000 54.701 244.625 M63.856 246.750 C 78.514 289.673,113.599 323.851,156.747 337.239 C 231.541 360.448,310.320 320.795,336.028 247.000 L 338.380 240.250 341.690 240.102 C 343.510 240.021,345.000 240.076,345.000 240.224 C 345.000 243.422,335.913 265.240,331.016 273.799 C 281.325 360.657,164.168 376.684,93.742 306.258 C 75.052 287.568,63.323 267.669,55.190 240.851 C 54.944 240.039,55.240 239.967,58.277 240.101 L 61.636 240.250 63.856 246.750 M334.000 240.452 C 334.000 241.541,330.178 251.750,327.792 257.034 C 284.971 351.860,157.457 368.997,91.791 288.750 C 80.607 275.082,66.000 247.702,66.000 240.406 C 66.000 240.183,126.300 240.000,200.000 240.000 C 279.428 240.000,334.000 240.184,334.000 240.452 M158.096 300.450 L 156.442 304.387 152.627 304.955 C 147.753 305.679,147.810 305.523,151.178 308.928 L 154.049 311.829 153.528 315.039 C 152.688 320.222,152.555 320.087,156.513 318.054 L 160.027 316.250 163.513 318.101 C 167.455 320.193,167.329 320.324,166.472 315.039 L 165.951 311.829 168.822 308.928 C 172.190 305.523,172.247 305.679,167.373 304.955 L 163.558 304.387 161.904 300.450 C 160.994 298.285,160.137 296.513,160.000 296.513 C 159.863 296.513,159.006 298.285,158.096 300.450 M198.096 300.450 L 196.442 304.387 192.627 304.955 C 187.753 305.679,187.810 305.523,191.178 308.928 L 194.049 311.829 193.528 315.039 C 192.688 320.222,192.555 320.087,196.513 318.054 L 200.027 316.250 203.513 318.101 C 207.455 320.193,207.329 320.324,206.472 315.039 L 205.951 311.829 208.822 308.928 C 212.190 305.523,212.247 305.679,207.373 304.955 L 203.558 304.387 201.904 300.450 C 200.994 298.285,200.137 296.513,200.000 296.513 C 199.863 296.513,199.006 298.285,198.096 300.450 M238.096 300.450 L 236.442 304.387 232.627 304.955 C 227.753 305.679,227.810 305.523,231.178 308.928 L 234.049 311.829 233.528 315.039 C 232.688 320.222,232.555 320.087,236.513 318.054 L 240.027 316.250 243.513 318.101 C 247.455 320.193,247.329 320.324,246.472 315.039 L 245.951 311.829 248.822 308.928 C 252.190 305.523,252.247 305.679,247.373 304.955 L 243.558 304.387 241.904 300.450 C 240.994 298.285,240.137 296.513,240.000 296.513 C 239.863 296.513,239.006 298.285,238.096 300.450 " stroke="none" fill="#000000" fill-rule="evenodd"></path></g></svg>