<?xml version="1.0" standalone="no"?>
<!DOCTYPE svg PUBLIC "-//W3C//DTD SVG 20010904//EN"
 "http://www.w3.org/TR/2001/REC-SVG-20010904/DTD/svg10.dtd">
<svg version="1.0" xmlns="http://www.w3.org/2000/svg"
 width="1200.000000pt" height="1200.000000pt" viewBox="0 0 1200.000000 1200.000000"
 preserveAspectRatio="xMidYMid meet">
<metadata>
Created by potrace 1.11, written by Peter Selinger 2001-2013
</metadata>
<g transform="translate(0.000000,1200.000000) scale(0.100000,-0.100000)"
fill="#000000" stroke="none">
<path d="M5725 10794 c-22 -2 -96 -9 -165 -15 -367 -32 -722 -108 -1100 -235
-1291 -434 -2344 -1411 -2882 -2674 -355 -833 -464 -1790 -307 -2695 210
-1209 867 -2276 1864 -3025 695 -523 1508 -835 2425 -932 191 -20 714 -17 920
5 859 94 1619 380 2305 868 463 329 919 803 1229 1276 434 663 689 1393 768
2198 19 195 16 731 -6 925 -101 903 -419 1709 -952 2411 -625 824 -1511 1430
-2500 1713 -280 80 -526 128 -834 161 -136 15 -669 28 -765 19z m570 -125
c1173 -77 2236 -566 3056 -1405 409 -419 733 -908 964 -1455 54 -127 186 -507
200 -576 l7 -33 -61 0 -60 0 -21 73 c-91 317 -256 705 -425 997 -840 1457
-2394 2329 -4075 2287 -664 -17 -1303 -175 -1903 -473 -450 -223 -822 -490
-1183 -849 -265 -264 -437 -473 -618 -752 -243 -376 -419 -758 -551 -1195
l-26 -88 -60 0 c-32 0 -59 4 -59 9 0 6 16 63 35 128 370 1233 1240 2271 2385
2843 222 112 347 165 551 235 438 150 823 228 1284 258 121 8 413 6 560 -4z
m25 -169 c845 -63 1605 -336 2296 -826 382 -270 758 -643 1032 -1021 315 -436
513 -842 696 -1430 7 -23 6 -23 -92 -23 l-99 0 -57 170 c-180 544 -469 1045
-851 1480 -110 124 -346 356 -465 456 -935 785 -2157 1139 -3365 974 -194 -27
-283 -44 -480 -95 -319 -82 -538 -162 -830 -305 -1044 -512 -1834 -1411 -2202
-2509 l-57 -171 -98 0 c-54 0 -98 3 -98 6 0 3 29 92 64 199 260 786 717 1470
1341 2010 483 416 1033 720 1635 901 289 87 621 152 885 174 72 5 148 12 170
13 97 8 452 6 575 -3z m165 -329 c219 -26 359 -52 549 -100 627 -160 1221
-471 1721 -901 110 -95 354 -343 456 -465 342 -408 599 -864 766 -1359 23 -71
43 -133 43 -138 0 -4 -1809 -8 -4020 -8 -2211 0 -4020 4 -4020 8 0 5 20 67 43
138 212 628 576 1203 1058 1669 710 687 1606 1091 2602 1175 170 14 610 4 802
-19z m4103 -3253 c121 -621 121 -1206 0 -1835 l-31 -163 -4557 0 -4557 0 -31
163 c-68 352 -86 552 -86 917 0 365 18 565 86 918 l31 162 4557 0 4557 0 31
-162z m-8968 -2190 c129 -450 354 -920 636 -1328 173 -250 334 -439 577 -676
843 -823 1979 -1284 3162 -1284 1076 0 2104 373 2930 1062 238 198 536 513
726 768 327 436 579 941 729 1458 l21 72 59 0 c33 0 60 -4 60 -8 0 -5 -7 -33
-16 -63 -287 -1002 -890 -1872 -1724 -2491 -837 -621 -1860 -944 -2895 -915
-249 7 -386 20 -595 53 -796 126 -1524 438 -2145 918 -694 536 -1214 1241
-1531 2074 -41 108 -134 401 -134 423 0 5 27 9 60 9 l59 0 21 -72z m265 -45
c110 -350 298 -743 508 -1058 172 -260 312 -432 530 -654 343 -348 702 -610
1142 -831 522 -263 1028 -402 1636 -451 177 -14 580 -6 769 16 783 90 1499
373 2121 840 325 243 639 560 886 892 268 360 506 825 638 1246 l37 117 100 0
c98 0 99 0 92 -22 -96 -313 -177 -524 -289 -753 -510 -1043 -1395 -1845 -2486
-2255 -532 -200 -1082 -290 -1678 -277 -516 12 -982 100 -1451 274 -864 322
-1587 878 -2130 1640 -185 259 -377 612 -498 918 -48 120 -162 452 -162 471 0
2 45 4 99 4 l99 0 37 -117z m8135 107 c0 -5 -16 -58 -36 -117 -162 -486 -424
-957 -752 -1353 -199 -240 -545 -564 -783 -732 -576 -407 -1188 -650 -1880
-747 -916 -128 -1849 54 -2660 519 -344 197 -628 418 -914 712 -448 458 -778
999 -979 1601 -20 59 -36 112 -36 117 0 7 1387 10 4020 10 2633 0 4020 -3
4020 -10z"/>
<path d="M5543 9585 c-51 -36 -109 -324 -120 -595 -5 -126 -3 -167 11 -220 34
-130 132 -260 255 -334 54 -33 193 -86 225 -86 14 0 16 -27 16 -220 l0 -220
-40 -29 c-55 -40 -171 -87 -282 -115 -86 -22 -128 -47 -128 -77 0 -5 223 -9
520 -9 320 0 520 4 520 9 0 6 -10 21 -22 35 -17 18 -48 31 -113 46 -91 22
-230 81 -285 120 l-30 21 0 218 0 218 62 17 c197 55 375 221 430 400 19 62 20
84 15 225 -9 244 -64 541 -109 588 l-21 23 -442 0 c-375 0 -444 -2 -462 -15z
m826 -173 c6 -21 14 -52 17 -70 l7 -32 -307 0 -306 0 -11 -27 c-32 -83 -52
-222 -53 -373 -1 -144 1 -158 23 -203 33 -67 110 -141 189 -182 57 -29 62 -33
32 -29 -151 23 -294 124 -357 252 -24 49 -28 71 -31 162 -6 152 18 350 59 503
l10 37 359 0 359 0 10 -38z"/>
<path d="M6455 6396 c-83 -23 -125 -90 -125 -198 0 -33 -4 -48 -13 -48 -7 0
-21 -6 -32 -13 -14 -11 -16 -21 -11 -50 6 -31 11 -37 31 -37 l25 0 0 -152 0
-153 -30 -17 c-23 -13 -30 -24 -30 -47 0 -62 -2 -61 160 -61 l147 0 7 42 c8
47 3 52 -61 70 l-43 12 0 153 0 153 80 0 80 0 0 50 0 50 -80 0 -80 0 0 48 c0
55 19 88 54 94 31 6 39 1 51 -37 9 -25 16 -30 48 -33 21 -2 45 2 52 8 15 13
36 96 28 116 -7 19 -92 52 -153 58 -34 3 -74 0 -105 -8z"/>
<path d="M3390 6391 c-20 -6 -26 -15 -31 -49 -5 -39 -3 -44 23 -60 l28 -16 0
-323 0 -323 39 0 c21 0 44 6 50 13 9 12 21 11 68 -6 105 -35 214 -9 281 67 46
52 65 129 60 240 -7 169 -62 231 -203 231 -47 0 -81 -6 -102 -18 l-32 -17 -3
132 -3 133 -75 2 c-41 1 -86 -2 -100 -6z m326 -349 c24 -16 34 -55 34 -137 0
-143 -38 -196 -128 -179 l-47 9 0 145 c0 144 0 144 25 157 27 14 98 17 116 5z"/>
<path d="M6914 6389 c-24 -12 -44 -49 -44 -79 0 -10 11 -31 23 -46 20 -22 32
-27 70 -27 62 0 87 22 87 78 0 29 -6 47 -19 59 -24 22 -88 30 -117 15z"/>
<path d="M8363 6393 c-16 -3 -24 -14 -29 -39 -8 -45 0 -64 36 -77 28 -11 30
-15 30 -63 l0 -52 -58 5 c-84 8 -162 -17 -212 -67 -55 -55 -74 -124 -68 -249
7 -142 46 -206 142 -232 51 -14 133 -6 176 16 31 16 33 16 47 -5 14 -20 22
-22 68 -16 28 3 66 11 83 17 30 10 32 14 32 55 0 41 -3 46 -30 55 l-30 11 0
324 0 324 -82 -1 c-46 -1 -93 -4 -105 -6z m6 -339 l31 -6 0 -147 c0 -164 0
-164 -78 -177 -32 -5 -43 -2 -65 17 -46 40 -57 155 -26 256 18 56 59 73 138
57z"/>
<path d="M4284 6161 c-86 -22 -150 -84 -173 -167 -16 -58 -13 -183 5 -238 35
-101 133 -155 261 -143 151 14 236 115 236 282 0 136 -32 203 -116 246 -44 23
-161 34 -213 20z m115 -116 c41 -21 56 -66 56 -167 0 -72 -4 -92 -21 -115 -45
-60 -128 -52 -160 15 -23 47 -25 183 -4 227 25 51 78 67 129 40z"/>
<path d="M4832 6161 c-8 -4 -16 -27 -19 -49 -5 -38 -3 -43 26 -59 l31 -18 0
-145 0 -145 -30 -17 c-23 -13 -30 -24 -30 -47 0 -61 1 -61 136 -61 99 0 124 3
124 14 0 7 3 27 6 44 5 27 2 32 -25 46 l-31 17 0 140 0 140 35 15 c49 20 101
18 125 -6 18 -18 20 -33 20 -155 l0 -134 -31 -17 c-24 -12 -30 -20 -25 -37 3
-12 6 -32 6 -44 0 -23 2 -23 124 -23 135 0 136 0 136 61 0 23 -7 34 -29 47
l-29 16 -4 161 c-3 177 -11 205 -72 241 -45 27 -165 26 -227 -2 l-46 -21 5 23
c4 24 3 24 -79 24 -46 0 -90 -4 -97 -9z"/>
<path d="M5725 6160 c-22 -4 -59 -16 -82 -25 -41 -17 -43 -19 -43 -60 0 -24 4
-55 10 -70 9 -24 14 -26 61 -23 49 3 52 5 63 38 10 32 15 35 53 38 60 4 93
-29 93 -93 l0 -45 -92 0 c-124 -1 -170 -20 -199 -86 -51 -114 30 -224 166
-224 44 0 106 19 135 42 l25 20 9 -31 c10 -35 29 -39 116 -20 l50 11 0 49 c0
46 -2 51 -29 60 l-30 10 -3 159 c-3 175 -9 194 -77 233 -36 22 -162 31 -226
17z m153 -367 c-3 -47 -4 -48 -46 -63 -38 -13 -46 -13 -70 0 -33 19 -41 63
-16 91 13 15 31 19 76 19 l59 0 -3 -47z"/>
<path d="M6853 6162 c-7 -4 -15 -26 -19 -49 -6 -39 -4 -42 25 -57 l31 -17 0
-149 0 -149 -30 -16 c-32 -16 -34 -23 -24 -74 l7 -31 122 0 123 0 6 31 c10 51
8 58 -24 74 l-30 16 0 214 0 215 -87 0 c-49 0 -93 -4 -100 -8z"/>
<path d="M7312 6161 c-8 -4 -16 -27 -19 -49 -5 -38 -3 -43 26 -59 l31 -18 0
-145 0 -145 -30 -17 c-23 -13 -30 -24 -30 -47 0 -61 1 -61 136 -61 99 0 124 3
124 14 0 7 3 27 6 44 5 27 2 32 -25 46 l-31 17 0 140 0 140 35 15 c49 20 101
18 125 -6 18 -18 20 -33 20 -155 l0 -134 -31 -17 c-24 -12 -30 -20 -25 -37 3
-12 6 -32 6 -44 0 -23 2 -23 124 -23 135 0 136 0 136 61 0 23 -7 34 -29 47
l-29 16 -4 161 c-3 177 -11 205 -72 241 -45 27 -165 26 -227 -2 l-46 -21 5 23
c4 24 3 24 -79 24 -46 0 -90 -4 -97 -9z"/>
<path d="M4745 2995 c-26 -64 -55 -120 -64 -124 -9 -5 -63 -14 -121 -21 -58
-7 -107 -15 -109 -17 -3 -2 34 -43 82 -91 l87 -88 -18 -126 -18 -127 30 13
c17 7 66 31 109 52 l77 38 105 -52 c123 -61 115 -69 90 100 l-16 102 87 87
c47 47 82 89 78 91 -5 3 -54 11 -109 18 -55 7 -107 16 -116 21 -9 4 -38 60
-64 124 -27 63 -52 115 -55 115 -3 0 -28 -52 -55 -115z"/>
<path d="M5945 2995 c-26 -64 -55 -120 -64 -124 -9 -5 -63 -14 -121 -21 -58
-7 -107 -15 -109 -17 -3 -2 34 -43 82 -91 l87 -88 -18 -126 -18 -127 30 13
c17 7 66 31 109 52 l77 38 105 -52 c123 -61 115 -69 90 100 l-16 102 88 88
c48 48 85 89 82 91 -2 2 -51 10 -109 17 -58 7 -112 16 -121 21 -9 4 -38 60
-64 124 -27 63 -52 115 -55 115 -3 0 -28 -52 -55 -115z"/>
<path d="M7145 2995 c-26 -64 -55 -120 -64 -124 -9 -5 -63 -14 -121 -21 -58
-7 -107 -15 -109 -17 -3 -2 34 -43 82 -91 l87 -88 -18 -126 -18 -127 30 13
c17 7 66 31 109 52 l77 38 105 -52 c123 -61 115 -69 90 100 l-16 102 88 88
c48 48 85 89 82 91 -2 2 -51 10 -109 17 -58 7 -112 16 -121 21 -9 4 -38 60
-64 124 -27 63 -52 115 -55 115 -3 0 -28 -52 -55 -115z"/>
</g>
</svg>
